mtllib silesia_ring.mtl
o SilesiaRing_approx_3636m_12m_road
v 2.0796 6.0000 0.0100
v 559.5034 6.0000 0.0100
v 688.3494 27.4743 0.0100
v 773.2318 91.1361 0.0100
v 815.1476 174.9677 0.0100
v 794.5981 246.8907 0.0100
v 732.9511 287.9887 0.0100
v 660.2800 277.6071 0.0100
v 593.5813 233.1413 0.0100
v 523.0502 256.6517 0.0100
v 488.4058 325.9405 0.0100
v 499.8098 405.7686 0.0100
v 556.4834 473.7769 0.0100
v 656.7899 507.2124 0.0100
v 753.7130 517.9816 0.0100
v 815.9445 569.8411 0.0100
v 826.2514 641.9896 0.0100
v 795.3777 703.7368 0.0100
v 722.5641 734.9427 0.0100
v 627.5030 724.3803 0.0100
v 562.6596 681.1514 0.0100
v 494.3438 658.3795 0.0100
v 415.7972 692.0423 0.0100
v 329.7204 735.0807 0.0100
v 234.6460 735.0807 0.0100
v 160.6814 692.8152 0.0100
v 107.2211 628.6628 0.0100
v 63.7876 552.6543 0.0100
v 18.9381 485.3799 0.0100
v -48.9176 462.7614 0.0100
v -124.1199 452.0182 0.0100
v -175.9489 410.5550 0.0100
v -196.5526 348.7438 0.0100
v -175.9489 286.9327 0.0100
v -122.8413 244.4466 0.0100
v -66.4946 199.3692 0.0100
v -55.0335 119.1415 0.0100
v -75.7596 67.3263 0.0100
v 5.8948 17.0074 0.0100
v 558.5154 17.9387 0.0100
v 683.6978 38.3451 0.0100
v 764.1454 98.7194 0.0100
v 803.6351 176.0377 0.0100
v 785.2227 240.0471 0.0100
v 730.3902 276.6985 0.0100
v 664.5085 266.5398 0.0100
v 595.0839 221.9207 0.0100
v 515.5116 247.9597 0.0100
v 476.8430 324.0641 0.0100
v 489.0608 410.5471 0.0100
v 549.8527 483.4917 0.0100
v 654.2228 518.9002 0.0100
v 749.1142 528.7777 0.0100
v 805.8395 575.4799 0.0100
v 814.6886 640.1132 0.0100
v 787.4128 695.2896 0.0100
v 720.8351 723.2751 0.0100
v 631.5503 713.2696 0.0100
v 567.9083 670.4198 0.0100
v 493.8625 646.8085 0.0100
v 410.7493 681.1585 0.0100
v 327.0013 723.5622 0.0100
v 237.6727 723.6837 0.0100
v 168.3278 683.6928 0.0100
v 117.0588 621.8318 0.0100
v 73.9924 546.3473 0.0100
v 26.0136 476.1163 0.0100
v -46.1662 451.1061 0.0100
v -119.4422 441.2061 0.0100
v -166.3157 403.8379 0.0100
v -184.8772 348.7438 0.0100
v -166.3157 293.6498 0.0100
v -115.3449 253.8170 0.0100
v -56.4683 205.0963 0.0100
v -43.3279 117.7383 0.0100
v -65.6084 70.0430 0.0100
usemtl Asphalt
f 1 39 40 2
f 2 40 41 3
f 3 41 42 4
f 4 42 43 5
f 5 43 44 6
f 6 44 45 7
f 7 45 46 8
f 8 46 47 9
f 9 47 48 10
f 10 48 49 11
f 11 49 50 12
f 12 50 51 13
f 13 51 52 14
f 14 52 53 15
f 15 53 54 16
f 16 54 55 17
f 17 55 56 18
f 18 56 57 19
f 19 57 58 20
f 20 58 59 21
f 21 59 60 22
f 22 60 61 23
f 23 61 62 24
f 24 62 63 25
f 25 63 64 26
f 26 64 65 27
f 27 65 66 28
f 28 66 67 29
f 29 67 68 30
f 30 68 69 31
f 31 69 70 32
f 32 70 71 33
f 33 71 72 34
f 34 72 73 35
f 35 73 74 36
f 36 74 75 37
f 37 75 76 38
f 38 76 39 1
