o TrackBoundaries
v -231.9937 337.9661 0.0000
v -231.9937 337.9661 0.1800
v -266.3631 303.5967 0.0000
v -266.3631 303.5967 0.1800
v -302.1646 252.0425 0.0000
v -302.1646 252.0425 0.1800
v -330.8058 199.0563 0.0000
v -330.8058 199.0563 0.1800
v -332.2379 168.9831 0.0000
v -332.2379 168.9831 0.1800
v -326.5096 153.2304 0.0000
v -326.5096 153.2304 0.1800
v -316.4852 143.2060 0.0000
v -316.4852 143.2060 0.1800
v -316.4852 128.8854 0.0000
v -316.4852 128.8854 0.1800
v -332.2379 127.4533 0.0000
v -332.2379 127.4533 0.1800
v -340.8302 133.1816 0.0000
v -340.8302 133.1816 0.1800
v -372.3356 134.6136 0.0000
v -372.3356 134.6136 0.1800
v -388.0882 126.0213 0.0000
v -388.0882 126.0213 0.1800
v -406.7050 105.9724 0.0000
v -406.7050 105.9724 0.1800
v -411.0012 74.4671 0.0000
v -411.0012 74.4671 0.1800
v -399.5447 48.6900 0.0000
v -399.5447 48.6900 0.1800
v -375.1997 25.7771 0.0000
v -375.1997 25.7771 0.1800
v -286.4120 -38.6656 0.0000
v -286.4120 -38.6656 0.1800
v 15.7527 -244.8822 0.0000
v 15.7527 -244.8822 0.1800
v 204.7846 -380.9279 0.0000
v 204.7846 -380.9279 0.1800
v 243.4502 -398.1126 0.0000
v 243.4502 -398.1126 0.1800
v 266.3631 -395.2485 0.0000
v 266.3631 -395.2485 0.1800
v 269.2273 -389.5203 0.0000
v 269.2273 -389.5203 0.1800
v 276.3876 -388.0882 0.0000
v 276.3876 -388.0882 0.1800
v 287.8440 -366.6073 0.0000
v 287.8440 -366.6073 0.1800
v 290.7082 -336.5341 0.0000
v 290.7082 -336.5341 0.1800
v 273.5234 -315.0532 0.0000
v 273.5234 -315.0532 0.1800
v 237.7219 -302.1646 0.0000
v 237.7219 -302.1646 0.1800
v 151.7983 -246.3143 0.0000
v 151.7983 -246.3143 0.1800
v 140.3419 -233.4258 0.0000
v 140.3419 -233.4258 0.1800
v 140.3419 -219.1052 0.0000
v 140.3419 -219.1052 0.1800
v 164.6869 -203.3525 0.0000
v 164.6869 -203.3525 0.1800
v 211.9449 -201.9204 0.0000
v 211.9449 -201.9204 0.1800
v 236.2899 -219.1052 0.0000
v 236.2899 -219.1052 0.1800
v 246.3143 -234.8578 0.0000
v 246.3143 -234.8578 0.1800
v 246.3143 -242.0181 0.0000
v 246.3143 -242.0181 0.1800
v 272.0914 -264.9311 0.0000
v 272.0914 -264.9311 0.1800
v 313.6211 -286.4120 0.0000
v 313.6211 -286.4120 0.1800
v 335.1020 -287.8440 0.0000
v 335.1020 -287.8440 0.1800
v 339.3982 -282.1158 0.0000
v 339.3982 -282.1158 0.1800
v 353.7188 -282.1158 0.0000
v 353.7188 -282.1158 0.1800
v 360.8791 -273.5234 0.0000
v 360.8791 -273.5234 0.1800
v 376.6317 -267.7952 0.0000
v 376.6317 -267.7952 0.1800
v 378.0638 -260.6349 0.0000
v 378.0638 -260.6349 0.1800
v 390.9523 -253.4746 0.0000
v 390.9523 -253.4746 0.1800
v 399.5447 -233.4258 0.0000
v 399.5447 -233.4258 0.1800
v 405.2729 -230.5616 0.0000
v 405.2729 -230.5616 0.1800
v 406.7050 -179.0075 0.0000
v 406.7050 -179.0075 0.1800
v 399.5447 -174.7113 0.0000
v 399.5447 -174.7113 0.1800
v 398.1126 -163.2548 0.0000
v 398.1126 -163.2548 0.1800
v 392.3844 -161.8228 0.0000
v 392.3844 -161.8228 0.1800
v 382.3600 -143.2060 0.0000
v 382.3600 -143.2060 0.1800
v 378.0638 -143.2060 0.0000
v 378.0638 -143.2060 0.1800
v 193.3281 50.1221 0.0000
v 193.3281 50.1221 0.1800
v 184.7357 57.2824 0.0000
v 184.7357 57.2824 0.1800
v 143.2060 58.7145 0.0000
v 143.2060 58.7145 0.1800
v 143.2060 81.6274 0.0000
v 143.2060 81.6274 0.1800
v 148.9342 93.0839 0.0000
v 148.9342 93.0839 0.1800
v 24.3450 226.2655 0.0000
v 24.3450 226.2655 0.1800
v 12.8885 243.4502 0.0000
v 12.8885 243.4502 0.1800
v -5.7282 250.6105 0.0000
v -5.7282 250.6105 0.1800
v -7.1603 254.9067 0.0000
v -7.1603 254.9067 0.1800
v -38.6656 252.0425 0.0000
v -38.6656 252.0425 0.1800
v -52.9862 234.8578 0.0000
v -52.9862 234.8578 0.1800
v -57.2824 234.8578 0.0000
v -57.2824 234.8578 0.1800
v -73.0351 204.7846 0.0000
v -73.0351 204.7846 0.1800
v -83.0595 201.9204 0.0000
v -83.0595 201.9204 0.1800
v -84.4915 197.6243 0.0000
v -84.4915 197.6243 0.1800
v -98.8121 197.6243 0.0000
v -98.8121 197.6243 0.1800
v -113.1327 213.3769 0.0000
v -113.1327 213.3769 0.1800
v -117.4289 227.6975 0.0000
v -117.4289 227.6975 0.1800
v -130.3174 243.4502 0.0000
v -130.3174 243.4502 0.1800
v -144.6380 280.6837 0.0000
v -144.6380 280.6837 0.1800
v -170.4151 326.5096 0.0000
v -170.4151 326.5096 0.1800
v -180.4395 336.5341 0.0000
v -180.4395 336.5341 0.1800
v -201.9204 346.5585 0.0000
v -201.9204 346.5585 0.1800
v -128.8854 -85.9236 0.0000
v -128.8854 -85.9236 0.1800
v -111.7007 -78.7633 0.0000
v -111.7007 -78.7633 0.1800
v -91.6518 -81.6274 0.0000
v -91.6518 -81.6274 0.1800
v -75.8992 -98.8121 0.0000
v -75.8992 -98.8121 0.1800
v -75.8992 -105.9724 0.0000
v -75.8992 -105.9724 0.1800
v -71.6030 -105.9724 0.0000
v -71.6030 -105.9724 0.1800
v -55.8503 -124.5892 0.0000
v -55.8503 -124.5892 0.1800
v -55.8503 -130.3174 0.0000
v -55.8503 -130.3174 0.1800
v -48.6900 -130.3174 0.0000
v -48.6900 -130.3174 0.1800
v -45.8259 -138.9098 0.0000
v -45.8259 -138.9098 0.1800
v -27.2091 -150.3663 0.0000
v -27.2091 -150.3663 0.1800
v -27.2091 -157.5266 0.0000
v -27.2091 -157.5266 0.1800
v -7.1603 -158.9586 0.0000
v -7.1603 -158.9586 0.1800
v 8.5924 -166.1189 0.0000
v 8.5924 -166.1189 0.1800
v 10.0244 -181.8716 0.0000
v 10.0244 -181.8716 0.1800
v 5.7282 -186.1678 0.0000
v 5.7282 -186.1678 0.1800
v -17.1847 -184.7357 0.0000
v -17.1847 -184.7357 0.1800
v -32.9374 -173.2792 0.0000
v -32.9374 -173.2792 0.1800
v -32.9374 -166.1189 0.0000
v -32.9374 -166.1189 0.1800
v -45.8259 -164.6869 0.0000
v -45.8259 -164.6869 0.1800
v -100.2442 -123.1571 0.0000
v -100.2442 -123.1571 0.1800
v -126.0213 -108.8365 0.0000
v -126.0213 -108.8365 0.1800
v 45.8259 -184.7357 0.0000
v 45.8259 -184.7357 0.1800
v 57.2824 -164.6869 0.0000
v 57.2824 -164.6869 0.1800
v 77.3312 -148.9342 0.0000
v 77.3312 -148.9342 0.1800
v 95.9480 -113.1327 0.0000
v 95.9480 -113.1327 0.1800
v 133.1816 -111.7007 0.0000
v 133.1816 -111.7007 0.1800
v 154.6625 -101.6763 0.0000
v 154.6625 -101.6763 0.1800
v 176.1434 -42.9618 0.0000
v 176.1434 -42.9618 0.1800
v 196.1922 -27.2091 0.0000
v 196.1922 -27.2091 0.1800
v 216.2410 -27.2091 0.0000
v 216.2410 -27.2091 0.1800
v 362.3111 -179.0075 0.0000
v 362.3111 -179.0075 0.1800
v 369.4714 -190.4640 0.0000
v 369.4714 -190.4640 0.1800
v 369.4714 -216.2410 0.0000
v 369.4714 -216.2410 0.1800
v 345.1264 -243.4502 0.0000
v 345.1264 -243.4502 0.1800
v 313.6211 -246.3143 0.0000
v 313.6211 -246.3143 0.1800
v 300.7326 -240.5861 0.0000
v 300.7326 -240.5861 0.1800
v 289.2761 -226.2655 0.0000
v 289.2761 -226.2655 0.1800
v 283.5479 -226.2655 0.0000
v 283.5479 -226.2655 0.1800
v 264.9311 -196.1922 0.0000
v 264.9311 -196.1922 0.1800
v 234.8578 -171.8472 0.0000
v 234.8578 -171.8472 0.1800
v 199.0563 -163.2548 0.0000
v 199.0563 -163.2548 0.1800
v 164.6869 -166.1189 0.0000
v 164.6869 -166.1189 0.1800
v 141.7739 -173.2792 0.0000
v 141.7739 -173.2792 0.1800
v 113.1327 -196.1922 0.0000
v 113.1327 -196.1922 0.1800
v 104.5404 -213.3769 0.0000
v 104.5404 -213.3769 0.1800
v 103.1083 -230.5616 0.0000
v 103.1083 -230.5616 0.1800
v 110.2686 -246.3143 0.0000
v 110.2686 -246.3143 0.1800
v 110.2686 -260.6349 0.0000
v 110.2686 -260.6349 0.1800
v 94.5160 -262.0670 0.0000
v 94.5160 -262.0670 0.1800
v 50.1221 -229.1296 0.0000
v 50.1221 -229.1296 0.1800
v 45.8259 -221.9693 0.0000
v 45.8259 -221.9693 0.1800
v -375.1997 88.7877 0.0000
v -375.1997 88.7877 0.1800
v -363.7432 98.8121 0.0000
v -363.7432 98.8121 0.1800
v -342.2623 98.8121 0.0000
v -342.2623 98.8121 0.1800
v -158.9586 -30.0733 0.0000
v -158.9586 -30.0733 0.1800
v -147.5022 -45.8259 0.0000
v -147.5022 -45.8259 0.1800
v -148.9342 -64.4427 0.0000
v -148.9342 -64.4427 0.1800
v -156.0945 -73.0351 0.0000
v -156.0945 -73.0351 0.1800
v -179.0075 -73.0351 0.0000
v -179.0075 -73.0351 0.1800
v -368.0394 63.0106 0.0000
v -368.0394 63.0106 0.1800
v -369.4714 68.7389 0.0000
v -369.4714 68.7389 0.1800
v -375.1997 70.1709 0.0000
v -375.1997 70.1709 0.1800
v -279.2517 110.2686 0.0000
v -279.2517 110.2686 0.1800
v -262.0670 111.7007 0.0000
v -262.0670 111.7007 0.1800
v -120.2930 91.6518 0.0000
v -120.2930 91.6518 0.1800
v -113.1327 85.9236 0.0000
v -113.1327 85.9236 0.1800
v -100.2442 60.1465 0.0000
v -100.2442 60.1465 0.1800
v -84.4915 50.1221 0.0000
v -84.4915 50.1221 0.1800
v 25.7771 21.4809 0.0000
v 25.7771 21.4809 0.1800
v 81.6274 -2.8641 0.0000
v 81.6274 -2.8641 0.1800
v 104.5404 -18.6168 0.0000
v 104.5404 -18.6168 0.1800
v 126.0213 -44.3939 0.0000
v 126.0213 -44.3939 0.1800
v 127.4533 -73.0351 0.0000
v 127.4533 -73.0351 0.1800
v 87.3557 -74.4671 0.0000
v 87.3557 -74.4671 0.1800
v 77.3312 -78.7633 0.0000
v 77.3312 -78.7633 0.1800
v 52.9862 -110.2686 0.0000
v 52.9862 -110.2686 0.1800
v 50.1221 -123.1571 0.0000
v 50.1221 -123.1571 0.1800
v 34.3694 -130.3174 0.0000
v 34.3694 -130.3174 0.1800
v 5.7282 -128.8854 0.0000
v 5.7282 -128.8854 0.1800
v 2.8641 -123.1571 0.0000
v 2.8641 -123.1571 0.1800
v -17.1847 -114.5648 0.0000
v -17.1847 -114.5648 0.1800
v -22.9130 -103.1083 0.0000
v -22.9130 -103.1083 0.1800
v -48.6900 -80.1954 0.0000
v -48.6900 -80.1954 0.1800
v -48.6900 -71.6030 0.0000
v -48.6900 -71.6030 0.1800
v -52.9862 -71.6030 0.0000
v -52.9862 -71.6030 0.1800
v -63.0106 -57.2824 0.0000
v -63.0106 -57.2824 0.1800
v -242.0181 73.0351 0.0000
v -242.0181 73.0351 0.1800
v -277.8196 94.5160 0.0000
v -277.8196 94.5160 0.1800
v -293.5723 196.1922 0.0000
v -293.5723 196.1922 0.1800
v -229.1296 292.1402 0.0000
v -229.1296 292.1402 0.1800
v -216.2410 305.0288 0.0000
v -216.2410 305.0288 0.1800
v -200.4884 305.0288 0.0000
v -200.4884 305.0288 0.1800
v -176.1434 262.0670 0.0000
v -176.1434 262.0670 0.1800
v -150.3663 201.9204 0.0000
v -150.3663 201.9204 0.1800
v -143.2060 196.1922 0.0000
v -143.2060 196.1922 0.1800
v -143.2060 189.0319 0.0000
v -143.2060 189.0319 0.1800
v -120.2930 166.1189 0.0000
v -120.2930 166.1189 0.1800
v -101.6763 163.2548 0.0000
v -101.6763 163.2548 0.1800
v -100.2442 158.9586 0.0000
v -100.2442 158.9586 0.1800
v -80.1954 158.9586 0.0000
v -80.1954 158.9586 0.1800
v -78.7633 163.2548 0.0000
v -78.7633 163.2548 0.1800
v -55.8503 168.9831 0.0000
v -55.8503 168.9831 0.1800
v -27.2091 210.5128 0.0000
v -27.2091 210.5128 0.1800
v -8.5924 210.5128 0.0000
v -8.5924 210.5128 0.1800
v 84.4915 107.4045 0.0000
v 84.4915 107.4045 0.1800
v 128.8854 104.5404 0.0000
v 128.8854 104.5404 0.1800
v 128.8854 90.2198 0.0000
v 128.8854 90.2198 0.1800
v 120.2930 73.0351 0.0000
v 120.2930 73.0351 0.1800
v 167.5510 22.9130 0.0000
v 167.5510 22.9130 0.1800
v 167.5510 5.7282 0.0000
v 167.5510 5.7282 0.1800
v 154.6625 -2.8641 0.0000
v 154.6625 -2.8641 0.1800
v 138.9098 -2.8641 0.0000
v 138.9098 -2.8641 0.1800
v 111.7007 21.4809 0.0000
v 111.7007 21.4809 0.1800
v 58.7145 48.6900 0.0000
v 58.7145 48.6900 0.1800
v -73.0351 85.9236 0.0000
v -73.0351 85.9236 0.1800
v -87.3557 114.5648 0.0000
v -87.3557 114.5648 0.1800
v -110.2686 128.8854 0.0000
v -110.2686 128.8854 0.1800
v -262.0670 147.5022 0.0000
v -262.0670 147.5022 0.1800
v -282.1158 157.5266 0.0000
v -282.1158 157.5266 0.1800
v -293.5723 170.4151 0.0000
v -293.5723 170.4151 0.1800
vn -0.707107 0.707107 0.000000
vn -0.707107 0.707107 0.000000
vn 0.707107 -0.707107 0.000000
vn 0.707107 -0.707107 0.000000
vn -0.821370 0.570396 0.000000
vn -0.821370 0.570396 0.000000
vn 0.821370 -0.570396 0.000000
vn 0.821370 -0.570396 0.000000
vn -0.879706 0.475517 0.000000
vn -0.879706 0.475517 0.000000
vn 0.879706 -0.475517 0.000000
vn 0.879706 -0.475517 0.000000
vn -0.998868 0.047567 0.000000
vn -0.998868 0.047567 0.000000
vn 0.998868 -0.047567 0.000000
vn 0.998868 -0.047567 0.000000
vn -0.939793 -0.341745 0.000000
vn -0.939793 -0.341745 0.000000
vn 0.939793 0.341745 0.000000
vn 0.939793 0.341745 0.000000
vn -0.707107 -0.707107 0.000000
vn -0.707107 -0.707107 0.000000
vn 0.707107 0.707107 0.000000
vn 0.707107 0.707107 0.000000
vn -1.000000 0.000000 0.000000
vn -1.000000 0.000000 0.000000
vn 1.000000 0.000000 0.000000
vn 1.000000 0.000000 0.000000
vn -0.090538 0.995893 0.000000
vn -0.090538 0.995893 0.000000
vn 0.090538 -0.995893 0.000000
vn 0.090538 -0.995893 0.000000
vn 0.554707 0.832046 0.000000
vn 0.554707 0.832046 -0.000000
vn -0.554707 -0.832046 0.000000
vn -0.554707 -0.832046 -0.000000
vn 0.045406 0.998969 0.000000
vn 0.045406 0.998969 -0.000000
vn -0.045406 -0.998969 0.000000
vn -0.045406 -0.998969 -0.000000
vn -0.478851 0.877896 0.000000
vn -0.478851 0.877896 0.000000
vn 0.478851 -0.877896 0.000000
vn 0.478851 -0.877896 0.000000
vn -0.732794 0.680450 0.000000
vn -0.732794 0.680450 0.000000
vn 0.732794 -0.680450 0.000000
vn 0.732794 -0.680450 0.000000
vn -0.990830 0.135114 0.000000
vn -0.990830 0.135114 0.000000
vn 0.990830 -0.135114 0.000000
vn 0.990830 -0.135114 0.000000
vn -0.913811 -0.406139 0.000000
vn -0.913811 -0.406139 0.000000
vn 0.913811 0.406139 0.000000
vn 0.913811 0.406139 0.000000
vn -0.685364 -0.728201 0.000000
vn -0.685364 -0.728201 0.000000
vn 0.685364 0.728201 0.000000
vn 0.685364 0.728201 0.000000
vn -0.587395 -0.809300 0.000000
vn -0.587395 -0.809300 0.000000
vn 0.587395 0.809300 0.000000
vn 0.587395 0.809300 0.000000
vn -0.563701 -0.825979 0.000000
vn -0.563701 -0.825979 0.000000
vn 0.563701 0.825979 0.000000
vn 0.563701 0.825979 0.000000
vn -0.584143 -0.811651 0.000000
vn -0.584143 -0.811651 0.000000
vn 0.584143 0.811651 0.000000
vn 0.584143 0.811651 0.000000
vn -0.406138 -0.913812 0.000000
vn -0.406138 -0.913812 0.000000
vn 0.406138 0.913812 0.000000
vn 0.406138 0.913812 0.000000
vn 0.124034 -0.992278 0.000000
vn 0.124034 -0.992278 0.000000
vn -0.124034 0.992278 0.000000
vn -0.124034 0.992278 0.000000
vn 0.894421 -0.447226 0.000000
vn 0.894421 -0.447226 0.000000
vn -0.894421 0.447226 0.000000
vn -0.894421 0.447226 0.000000
vn 0.196121 -0.980580 0.000000
vn 0.196121 -0.980580 0.000000
vn -0.196121 0.980580 0.000000
vn -0.196121 0.980580 0.000000
vn 0.882354 -0.470586 0.000000
vn 0.882354 -0.470586 0.000000
vn -0.882354 0.470586 0.000000
vn -0.882354 0.470586 0.000000
vn 0.995495 -0.094812 0.000000
vn 0.995495 -0.094812 0.000000
vn -0.995495 0.094812 0.000000
vn -0.995495 0.094812 0.000000
vn 0.780867 0.624697 0.000000
vn 0.780867 0.624697 -0.000000
vn -0.780867 -0.624697 0.000000
vn -0.780867 -0.624697 -0.000000
vn 0.338721 0.940887 0.000000
vn 0.338721 0.940887 -0.000000
vn -0.338721 -0.940887 0.000000
vn -0.338721 -0.940887 -0.000000
vn 0.544988 0.838444 0.000000
vn 0.544988 0.838444 -0.000000
vn -0.544988 -0.838444 0.000000
vn -0.544988 -0.838444 -0.000000
vn 0.747411 0.664362 0.000000
vn 0.747411 0.664362 -0.000000
vn -0.747411 -0.664362 0.000000
vn -0.747411 -0.664362 -0.000000
vn 1.000000 0.000000 0.000000
vn 1.000000 0.000000 0.000000
vn -1.000000 0.000000 0.000000
vn -1.000000 0.000000 0.000000
vn 0.543253 -0.839569 0.000000
vn 0.543253 -0.839569 0.000000
vn -0.543253 0.839569 0.000000
vn -0.543253 0.839569 0.000000
vn 0.030290 -0.999541 0.000000
vn 0.030290 -0.999541 0.000000
vn -0.030290 0.999541 0.000000
vn -0.030290 0.999541 0.000000
vn -0.576685 -0.816966 0.000000
vn -0.576685 -0.816966 0.000000
vn 0.576685 0.816966 0.000000
vn 0.576685 0.816966 0.000000
vn -0.843661 -0.536876 0.000000
vn -0.843661 -0.536876 0.000000
vn 0.843661 0.536876 0.000000
vn 0.843661 0.536876 0.000000
vn -1.000000 0.000000 0.000000
vn -1.000000 0.000000 0.000000
vn 1.000000 0.000000 0.000000
vn 1.000000 0.000000 0.000000
vn -0.664364 -0.747409 0.000000
vn -0.664364 -0.747409 0.000000
vn 0.664364 0.747409 0.000000
vn 0.664364 0.747409 0.000000
vn -0.459423 -0.888217 0.000000
vn -0.459423 -0.888217 0.000000
vn 0.459423 0.888217 0.000000
vn 0.459423 0.888217 0.000000
vn -0.066516 -0.997785 0.000000
vn -0.066516 -0.997785 0.000000
vn 0.066516 0.997785 0.000000
vn 0.066516 0.997785 0.000000
vn 0.799997 -0.600004 0.000000
vn 0.799997 -0.600004 0.000000
vn -0.799997 0.600004 0.000000
vn -0.799997 0.600004 0.000000
vn 0.000000 -1.000000 0.000000
vn 0.000000 -1.000000 0.000000
vn -0.000000 1.000000 0.000000
vn 0.000000 1.000000 0.000000
vn 0.768223 -0.640183 0.000000
vn 0.768223 -0.640183 0.000000
vn -0.768223 0.640183 0.000000
vn -0.768223 0.640183 0.000000
vn 0.341742 -0.939794 0.000000
vn 0.341742 -0.939794 0.000000
vn -0.341742 0.939794 0.000000
vn -0.341742 0.939794 0.000000
vn 0.980580 -0.196121 0.000000
vn 0.980580 -0.196121 0.000000
vn -0.980580 0.196121 0.000000
vn -0.980580 0.196121 0.000000
vn 0.485644 -0.874157 0.000000
vn 0.485644 -0.874157 0.000000
vn -0.485644 0.874157 0.000000
vn -0.485644 0.874157 0.000000
vn 0.919144 -0.393922 0.000000
vn 0.919144 -0.393922 0.000000
vn -0.919144 0.393922 0.000000
vn -0.919144 0.393922 0.000000
vn 0.447226 -0.894421 0.000000
vn 0.447226 -0.894421 0.000000
vn -0.447226 0.894421 0.000000
vn -0.447226 0.894421 0.000000
vn 0.999614 -0.027768 0.000000
vn 0.999614 -0.027768 0.000000
vn -0.999614 0.027768 0.000000
vn -0.999614 0.027768 0.000000
vn 0.514498 0.857492 0.000000
vn 0.514498 0.857492 -0.000000
vn -0.514498 -0.857492 0.000000
vn -0.514498 -0.857492 -0.000000
vn 0.992277 0.124038 0.000000
vn 0.992277 0.124038 -0.000000
vn -0.992277 -0.124038 0.000000
vn -0.992277 -0.124038 -0.000000
vn 0.242528 0.970144 0.000000
vn 0.242528 0.970144 -0.000000
vn -0.242528 -0.970144 0.000000
vn -0.242528 -0.970144 -0.000000
vn 0.880472 0.474099 0.000000
vn 0.880472 0.474099 -0.000000
vn -0.880472 -0.474099 0.000000
vn -0.880472 -0.474099 -0.000000
vn 0.000000 1.000000 0.000000
vn 0.000000 1.000000 -0.000000
vn -0.000000 -1.000000 0.000000
vn 0.000000 -1.000000 -0.000000
vn 0.722991 0.690858 0.000000
vn 0.722991 0.690858 -0.000000
vn -0.722991 -0.690858 0.000000
vn -0.722991 -0.690858 -0.000000
vn 0.640183 0.768223 0.000000
vn 0.640183 0.768223 -0.000000
vn -0.640183 -0.768223 0.000000
vn -0.640183 -0.768223 -0.000000
vn 0.034463 0.999406 0.000000
vn 0.034463 0.999406 -0.000000
vn -0.034463 -0.999406 0.000000
vn -0.034463 -0.999406 -0.000000
vn 1.000000 0.000000 0.000000
vn 1.000000 0.000000 0.000000
vn -1.000000 0.000000 0.000000
vn -1.000000 0.000000 0.000000
vn 0.894429 -0.447210 0.000000
vn 0.894429 -0.447210 0.000000
vn -0.894429 0.447210 0.000000
vn -0.894429 0.447210 0.000000
vn 0.730272 0.683157 0.000000
vn 0.730272 0.683157 -0.000000
vn -0.730272 -0.683157 0.000000
vn -0.730272 -0.683157 -0.000000
vn 0.832050 0.554701 0.000000
vn 0.832050 0.554701 -0.000000
vn -0.832050 -0.554701 0.000000
vn -0.832050 -0.554701 -0.000000
vn 0.358980 0.933345 0.000000
vn 0.358980 0.933345 -0.000000
vn -0.358980 -0.933345 0.000000
vn -0.358980 -0.933345 -0.000000
vn 0.948681 0.316234 0.000000
vn 0.948681 0.316234 -0.000000
vn -0.948681 -0.316234 0.000000
vn -0.948681 -0.316234 -0.000000
vn -0.090538 0.995893 0.000000
vn -0.090538 0.995893 0.000000
vn 0.090538 -0.995893 0.000000
vn 0.090538 -0.995893 0.000000
vn -0.768221 0.640185 0.000000
vn -0.768221 0.640185 0.000000
vn 0.768221 -0.640185 0.000000
vn 0.768221 -0.640185 0.000000
vn 0.000000 1.000000 0.000000
vn 0.000000 1.000000 -0.000000
vn -0.000000 -1.000000 0.000000
vn 0.000000 -1.000000 -0.000000
vn -0.885831 0.464009 0.000000
vn -0.885831 0.464009 0.000000
vn 0.885831 -0.464009 0.000000
vn 0.885831 -0.464009 0.000000
vn -0.274729 0.961522 0.000000
vn -0.274729 0.961522 0.000000
vn 0.274729 -0.961522 0.000000
vn 0.274729 -0.961522 0.000000
vn -0.948686 0.316221 0.000000
vn -0.948686 0.316221 0.000000
vn 0.948686 -0.316221 0.000000
vn 0.948686 -0.316221 0.000000
vn 0.000000 1.000000 0.000000
vn 0.000000 1.000000 -0.000000
vn -0.000000 -1.000000 0.000000
vn 0.000000 -1.000000 -0.000000
vn 0.739939 0.672674 0.000000
vn 0.739939 0.672674 -0.000000
vn -0.739939 -0.672674 0.000000
vn -0.739939 -0.672674 -0.000000
vn 0.957826 0.287349 0.000000
vn 0.957826 0.287349 -0.000000
vn -0.957826 -0.287349 0.000000
vn -0.957826 -0.287349 -0.000000
vn 0.773959 0.633236 0.000000
vn 0.773959 0.633236 -0.000000
vn -0.773959 -0.633236 0.000000
vn -0.773959 -0.633236 -0.000000
vn 0.933345 0.358980 0.000000
vn 0.933345 0.358980 -0.000000
vn -0.933345 -0.358980 0.000000
vn -0.933345 -0.358980 -0.000000
vn 0.871575 0.490262 0.000000
vn 0.871575 0.490262 -0.000000
vn -0.871575 -0.490262 0.000000
vn -0.871575 -0.490262 -0.000000
vn 0.707110 0.707103 0.000000
vn 0.707110 0.707103 -0.000000
vn -0.707110 -0.707103 0.000000
vn -0.707110 -0.707103 -0.000000
vn 0.422885 0.906183 0.000000
vn 0.422885 0.906183 -0.000000
vn -0.422885 -0.906183 0.000000
vn -0.422885 -0.906183 -0.000000
vn -0.274722 0.961524 0.000000
vn -0.274722 0.961524 0.000000
vn 0.274722 -0.961524 0.000000
vn 0.274722 -0.961524 0.000000
vn 0.384616 -0.923077 0.000000
vn 0.384616 -0.923077 0.000000
vn -0.384616 0.923077 0.000000
vn -0.384616 0.923077 0.000000
vn -0.141420 -0.989950 0.000000
vn -0.141420 -0.989950 0.000000
vn 0.141420 0.989950 0.000000
vn 0.141420 0.989950 0.000000
vn -0.737155 -0.675724 0.000000
vn -0.737155 -0.675724 0.000000
vn 0.737155 0.675724 0.000000
vn 0.737155 0.675724 0.000000
vn -1.000000 0.000000 0.000000
vn -1.000000 0.000000 0.000000
vn 1.000000 0.000000 0.000000
vn 1.000000 0.000000 0.000000
vn 0.000000 -1.000000 0.000000
vn 0.000000 -1.000000 0.000000
vn -0.000000 1.000000 0.000000
vn 0.000000 1.000000 0.000000
vn -0.763386 -0.645943 0.000000
vn -0.763386 -0.645943 0.000000
vn 0.763386 0.645943 0.000000
vn 0.763386 0.645943 0.000000
vn -1.000000 0.000000 0.000000
vn -1.000000 0.000000 0.000000
vn 1.000000 0.000000 0.000000
vn 1.000000 0.000000 0.000000
vn 0.000000 -1.000000 0.000000
vn 0.000000 -1.000000 0.000000
vn -0.000000 1.000000 0.000000
vn 0.000000 1.000000 0.000000
vn -0.948684 -0.316224 0.000000
vn -0.948684 -0.316224 0.000000
vn 0.948684 0.316224 0.000000
vn 0.948684 0.316224 0.000000
vn -0.524098 -0.851658 0.000000
vn -0.524098 -0.851658 0.000000
vn 0.524098 0.851658 0.000000
vn 0.524098 0.851658 0.000000
vn -1.000000 0.000000 0.000000
vn -1.000000 0.000000 0.000000
vn 1.000000 0.000000 0.000000
vn 1.000000 0.000000 0.000000
vn -0.071244 -0.997459 0.000000
vn -0.071244 -0.997459 0.000000
vn 0.071244 0.997459 0.000000
vn 0.071244 0.997459 0.000000
vn -0.413802 -0.910367 0.000000
vn -0.413802 -0.910367 0.000000
vn 0.413802 0.910367 0.000000
vn 0.413802 0.910367 0.000000
vn -0.995894 -0.090532 0.000000
vn -0.995894 -0.090532 0.000000
vn 0.995894 0.090532 0.000000
vn 0.995894 0.090532 0.000000
vn -0.707107 0.707107 0.000000
vn -0.707107 0.707107 0.000000
vn 0.707107 -0.707107 0.000000
vn 0.707107 -0.707107 0.000000
vn 0.062380 0.998052 0.000000
vn 0.062380 0.998052 -0.000000
vn -0.062380 -0.998052 0.000000
vn -0.062380 -0.998052 -0.000000
vn 0.588171 0.808736 0.000000
vn 0.588171 0.808736 -0.000000
vn -0.588171 -0.808736 0.000000
vn -0.588171 -0.808736 -0.000000
vn 1.000000 0.000000 0.000000
vn 1.000000 0.000000 0.000000
vn -1.000000 0.000000 0.000000
vn -1.000000 0.000000 0.000000
vn 0.110427 0.993884 0.000000
vn 0.110427 0.993884 -0.000000
vn -0.110427 -0.993884 0.000000
vn -0.110427 -0.993884 -0.000000
vn 0.606674 0.794951 0.000000
vn 0.606674 0.794951 -0.000000
vn -0.606674 -0.794951 0.000000
vn -0.606674 -0.794951 -0.000000
vn 0.485643 0.874157 0.000000
vn 0.485643 0.874157 -0.000000
vn -0.485643 -0.874157 0.000000
vn -0.485643 -0.874157 -0.000000
vn 0.992278 0.124034 0.000000
vn 0.992278 0.124034 -0.000000
vn -0.992278 -0.124034 0.000000
vn -0.992278 -0.124034 -0.000000
vn 0.868242 -0.496140 0.000000
vn 0.868242 -0.496140 0.000000
vn -0.868242 0.496140 0.000000
vn -0.868242 0.496140 0.000000
vn 0.617823 -0.786317 0.000000
vn 0.617823 -0.786317 0.000000
vn -0.617823 0.786317 0.000000
vn -0.617823 0.786317 0.000000
vn 0.887217 -0.461353 0.000000
vn 0.887217 -0.461353 0.000000
vn -0.887217 0.461353 0.000000
vn -0.887217 0.461353 0.000000
vn 0.038431 -0.999261 0.000000
vn 0.038431 -0.999261 0.000000
vn -0.038431 0.999261 0.000000
vn -0.038431 0.999261 0.000000
vn 0.422885 -0.906183 0.000000
vn 0.422885 -0.906183 0.000000
vn -0.422885 0.906183 0.000000
vn -0.422885 0.906183 0.000000
vn 0.939123 -0.343581 0.000000
vn 0.939123 -0.343581 0.000000
vn -0.939123 0.343581 0.000000
vn -0.939123 0.343581 0.000000
vn 0.617823 -0.786317 0.000000
vn 0.617823 -0.786317 0.000000
vn -0.617823 0.786317 0.000000
vn -0.617823 0.786317 0.000000
vn 0.000000 -1.000000 0.000000
vn 0.000000 -1.000000 0.000000
vn -0.000000 1.000000 0.000000
vn 0.000000 1.000000 0.000000
vn -0.720572 -0.693380 0.000000
vn -0.720572 -0.693380 0.000000
vn 0.720572 0.693380 0.000000
vn 0.720572 0.693380 0.000000
vn -0.847999 -0.529998 0.000000
vn -0.847999 -0.529998 0.000000
vn 0.847999 0.529998 0.000000
vn 0.847999 0.529998 0.000000
vn -1.000000 0.000000 0.000000
vn -1.000000 0.000000 0.000000
vn 1.000000 0.000000 0.000000
vn 1.000000 0.000000 0.000000
vn -0.745242 0.666794 0.000000
vn -0.745242 0.666794 0.000000
vn 0.745242 -0.666794 0.000000
vn 0.745242 -0.666794 0.000000
vn -0.090535 0.995893 0.000000
vn -0.090535 0.995893 0.000000
vn 0.090535 -0.995893 0.000000
vn 0.090535 -0.995893 0.000000
vn 0.406137 0.913812 0.000000
vn 0.406137 0.913812 -0.000000
vn -0.406137 -0.913812 0.000000
vn -0.406137 -0.913812 -0.000000
vn 0.780868 0.624696 0.000000
vn 0.780868 0.624696 -0.000000
vn -0.780868 -0.624696 0.000000
vn -0.780868 -0.624696 -0.000000
vn 0.000000 1.000000 0.000000
vn 0.000000 1.000000 -0.000000
vn -0.000000 -1.000000 0.000000
vn 0.000000 -1.000000 -0.000000
vn 0.850265 0.526355 0.000000
vn 0.850265 0.526355 -0.000000
vn -0.850265 -0.526355 0.000000
vn -0.850265 -0.526355 -0.000000
vn 0.629197 0.777246 0.000000
vn 0.629197 0.777246 -0.000000
vn -0.629197 -0.777246 0.000000
vn -0.629197 -0.777246 -0.000000
vn 0.233374 0.972387 0.000000
vn 0.233374 0.972387 -0.000000
vn -0.233374 -0.972387 0.000000
vn -0.233374 -0.972387 -0.000000
vn -0.083045 0.996546 0.000000
vn -0.083045 0.996546 0.000000
vn 0.083045 -0.996546 0.000000
vn 0.083045 -0.996546 0.000000
vn -0.298275 0.954480 0.000000
vn -0.298275 0.954480 0.000000
vn 0.298275 -0.954480 0.000000
vn 0.298275 -0.954480 0.000000
vn -0.624696 0.780868 0.000000
vn -0.624696 0.780868 0.000000
vn 0.624696 -0.780868 0.000000
vn 0.624696 -0.780868 0.000000
vn -0.894428 0.447212 0.000000
vn -0.894428 0.447212 0.000000
vn 0.894428 -0.447212 0.000000
vn 0.894428 -0.447212 0.000000
vn -0.996546 0.083048 0.000000
vn -0.996546 0.083048 0.000000
vn 0.996546 -0.083048 0.000000
vn 0.996546 -0.083048 0.000000
vn -0.910367 -0.413802 0.000000
vn -0.910367 -0.413802 0.000000
vn 0.910367 0.413802 0.000000
vn 0.910367 0.413802 0.000000
vn -1.000000 0.000000 0.000000
vn -1.000000 0.000000 0.000000
vn 1.000000 0.000000 0.000000
vn 1.000000 0.000000 0.000000
vn -0.090539 0.995893 0.000000
vn -0.090539 0.995893 0.000000
vn 0.090539 -0.995893 0.000000
vn 0.090539 -0.995893 0.000000
vn 0.595847 0.803098 0.000000
vn 0.595847 0.803098 -0.000000
vn -0.595847 -0.803098 0.000000
vn -0.595847 -0.803098 -0.000000
vn 0.857492 0.514498 0.000000
vn 0.857492 0.514498 -0.000000
vn -0.857492 -0.514498 0.000000
vn -0.857492 -0.514498 -0.000000
vn 1.000000 0.000000 0.000000
vn 1.000000 0.000000 0.000000
vn -1.000000 0.000000 0.000000
vn -1.000000 0.000000 0.000000
vn 0.658503 -0.752578 0.000000
vn 0.658503 -0.752578 0.000000
vn -0.658503 0.752578 0.000000
vn -0.658503 0.752578 0.000000
vn 0.000000 -1.000000 0.000000
vn 0.000000 -1.000000 0.000000
vn -0.000000 1.000000 0.000000
vn 0.000000 1.000000 0.000000
vn -0.575177 -0.818029 0.000000
vn -0.575177 -0.818029 0.000000
vn 0.575177 0.818029 0.000000
vn 0.575177 0.818029 0.000000
vn -0.808737 -0.588170 0.000000
vn -0.808737 -0.588170 0.000000
vn 0.808737 0.588170 0.000000
vn 0.808737 0.588170 0.000000
vn -0.997055 0.076693 0.000000
vn -0.997055 0.076693 0.000000
vn 0.997055 -0.076693 0.000000
vn 0.997055 -0.076693 0.000000
vn -0.768223 0.640183 0.000000
vn -0.768223 0.640183 0.000000
vn 0.768223 -0.640183 0.000000
vn 0.768223 -0.640183 0.000000
vn 0.000000 1.000000 0.000000
vn 0.000000 1.000000 -0.000000
vn -0.000000 -1.000000 0.000000
vn 0.000000 -1.000000 -0.000000
vn 0.584143 0.811651 0.000000
vn 0.584143 0.811651 -0.000000
vn -0.584143 -0.811651 0.000000
vn -0.584143 -0.811651 -0.000000
vn 0.970145 0.242524 0.000000
vn 0.970145 0.242524 -0.000000
vn -0.970145 -0.242524 0.000000
vn -0.970145 -0.242524 -0.000000
vn 0.242524 0.970145 0.000000
vn 0.242524 0.970145 -0.000000
vn -0.242524 -0.970145 0.000000
vn -0.242524 -0.970145 -0.000000
vn 1.000000 0.000000 0.000000
vn 1.000000 0.000000 0.000000
vn -1.000000 0.000000 0.000000
vn -1.000000 0.000000 0.000000
vn 0.083048 -0.996546 0.000000
vn 0.083048 -0.996546 0.000000
vn -0.083048 0.996546 0.000000
vn -0.083048 0.996546 0.000000
vn -0.140021 -0.990148 0.000000
vn -0.140021 -0.990148 0.000000
vn 0.140021 0.990148 0.000000
vn 0.140021 0.990148 0.000000
vn -0.624692 -0.780871 0.000000
vn -0.624692 -0.780871 0.000000
vn 0.624692 0.780871 0.000000
vn 0.624692 0.780871 0.000000
vn -0.894428 -0.447212 0.000000
vn -0.894428 -0.447212 0.000000
vn 0.894428 0.447212 0.000000
vn 0.894428 0.447212 0.000000
vn -0.536874 -0.843663 0.000000
vn -0.536874 -0.843663 0.000000
vn 0.536874 0.843663 0.000000
vn 0.536874 0.843663 0.000000
vn -0.251398 -0.967884 0.000000
vn -0.251398 -0.967884 0.000000
vn 0.251398 0.967884 0.000000
vn 0.251398 0.967884 0.000000
vn -0.399585 -0.916696 0.000000
vn -0.399585 -0.916696 0.000000
vn 0.399585 0.916696 0.000000
vn 0.399585 0.916696 0.000000
vn -0.566529 -0.824042 0.000000
vn -0.566529 -0.824042 0.000000
vn 0.566529 0.824042 0.000000
vn 0.566529 0.824042 0.000000
vn -0.768222 -0.640184 0.000000
vn -0.768222 -0.640184 0.000000
vn 0.768222 0.640184 0.000000
vn 0.768222 0.640184 0.000000
vn -0.998752 -0.049936 0.000000
vn -0.998752 -0.049936 0.000000
vn 0.998752 0.049936 0.000000
vn 0.998752 0.049936 0.000000
vn -0.035690 0.999363 0.000000
vn -0.035690 0.999363 0.000000
vn 0.035690 -0.999363 0.000000
vn 0.035690 -0.999363 0.000000
vn -0.393918 0.919146 0.000000
vn -0.393918 0.919146 0.000000
vn 0.393918 -0.919146 0.000000
vn 0.393918 -0.919146 0.000000
vn -0.791285 0.611447 0.000000
vn -0.791285 0.611447 0.000000
vn 0.791285 -0.611447 0.000000
vn 0.791285 -0.611447 0.000000
vn -0.976187 0.216930 0.000000
vn -0.976187 0.216930 0.000000
vn 0.976187 -0.216930 0.000000
vn 0.976187 -0.216930 0.000000
vn -0.413802 0.910367 0.000000
vn -0.413802 0.910367 0.000000
vn 0.413802 -0.910367 0.000000
vn 0.413802 -0.910367 0.000000
vn 0.049936 0.998752 0.000000
vn 0.049936 0.998752 -0.000000
vn -0.049936 -0.998752 0.000000
vn -0.049936 -0.998752 -0.000000
vn 0.894430 0.447207 0.000000
vn 0.894430 0.447207 -0.000000
vn -0.894430 -0.447207 0.000000
vn -0.894430 -0.447207 -0.000000
vn 0.393918 0.919146 0.000000
vn 0.393918 0.919146 -0.000000
vn -0.393918 -0.919146 0.000000
vn -0.393918 -0.919146 -0.000000
vn 0.894426 0.447217 0.000000
vn 0.894426 0.447217 -0.000000
vn -0.894426 -0.447217 0.000000
vn -0.894426 -0.447217 -0.000000
vn 0.664364 0.747409 0.000000
vn 0.664364 0.747409 -0.000000
vn -0.664364 -0.747409 0.000000
vn -0.664364 -0.747409 -0.000000
vn 1.000000 0.000000 0.000000
vn 1.000000 0.000000 0.000000
vn -1.000000 0.000000 0.000000
vn -1.000000 0.000000 0.000000
vn 0.000000 1.000000 0.000000
vn 0.000000 1.000000 -0.000000
vn -0.000000 -1.000000 0.000000
vn 0.000000 -1.000000 -0.000000
vn 0.819232 0.573462 0.000000
vn 0.819232 0.573462 -0.000000
vn -0.819232 -0.573462 0.000000
vn -0.819232 -0.573462 -0.000000
vn 0.588556 0.808456 0.000000
vn 0.588556 0.808456 -0.000000
vn -0.588556 -0.808456 0.000000
vn -0.588556 -0.808456 -0.000000
vn 0.514496 0.857493 0.000000
vn 0.514496 0.857493 -0.000000
vn -0.514496 -0.857493 0.000000
vn -0.514496 -0.857493 -0.000000
vn 0.995893 0.090539 0.000000
vn 0.995893 0.090539 -0.000000
vn -0.995893 -0.090539 0.000000
vn -0.995893 -0.090539 -0.000000
vn 0.830139 -0.557556 0.000000
vn 0.830139 -0.557556 0.000000
vn -0.830139 0.557556 0.000000
vn -0.830139 0.557556 0.000000
vn 0.707107 -0.707107 0.000000
vn 0.707107 -0.707107 0.000000
vn -0.707107 0.707107 0.000000
vn -0.707107 0.707107 0.000000
vn 0.000000 -1.000000 0.000000
vn 0.000000 -1.000000 0.000000
vn -0.000000 1.000000 0.000000
vn 0.000000 1.000000 0.000000
vn -0.870022 -0.493012 0.000000
vn -0.870022 -0.493012 0.000000
vn 0.870022 0.493012 0.000000
vn 0.870022 0.493012 0.000000
vn -0.919145 -0.393919 0.000000
vn -0.919145 -0.393919 0.000000
vn 0.919145 0.393919 0.000000
vn 0.919145 0.393919 0.000000
vn -0.624692 -0.780871 0.000000
vn -0.624692 -0.780871 0.000000
vn 0.624692 0.780871 0.000000
vn 0.624692 0.780871 0.000000
vn -1.000000 0.000000 0.000000
vn -1.000000 0.000000 0.000000
vn 1.000000 0.000000 0.000000
vn 1.000000 0.000000 0.000000
vn -0.707107 -0.707107 0.000000
vn -0.707107 -0.707107 0.000000
vn 0.707107 0.707107 0.000000
vn 0.707107 0.707107 0.000000
vn -0.152057 -0.988372 0.000000
vn -0.152057 -0.988372 0.000000
vn 0.152057 0.988372 0.000000
vn 0.152057 0.988372 0.000000
vn -0.948681 -0.316234 0.000000
vn -0.948681 -0.316234 0.000000
vn 0.948681 0.316234 0.000000
vn 0.948681 0.316234 0.000000
vn 0.000000 -1.000000 0.000000
vn 0.000000 -1.000000 0.000000
vn -0.000000 1.000000 0.000000
vn 0.000000 1.000000 0.000000
vn 0.948681 -0.316234 0.000000
vn 0.948681 -0.316234 0.000000
vn -0.948681 0.316234 0.000000
vn -0.948681 0.316234 0.000000
vn 0.242538 -0.970142 0.000000
vn 0.242538 -0.970142 0.000000
vn -0.242538 0.970142 0.000000
vn -0.242538 0.970142 0.000000
vn 0.823213 -0.567733 0.000000
vn 0.823213 -0.567733 0.000000
vn -0.823213 0.567733 0.000000
vn -0.823213 0.567733 0.000000
vn 0.000000 -1.000000 0.000000
vn 0.000000 -1.000000 0.000000
vn -0.000000 1.000000 0.000000
vn 0.000000 1.000000 0.000000
vn -0.742268 -0.670103 0.000000
vn -0.742268 -0.670103 0.000000
vn 0.742268 0.670103 0.000000
vn 0.742268 0.670103 0.000000
vn -0.064382 -0.997925 0.000000
vn -0.064382 -0.997925 0.000000
vn 0.064382 0.997925 0.000000
vn 0.064382 0.997925 0.000000
vn -1.000000 0.000000 0.000000
vn -1.000000 0.000000 0.000000
vn 1.000000 0.000000 0.000000
vn 1.000000 0.000000 0.000000
vn -0.894426 0.447216 0.000000
vn -0.894426 0.447216 0.000000
vn 0.894426 -0.447216 0.000000
vn 0.894426 -0.447216 0.000000
vn -0.727589 -0.686013 0.000000
vn -0.727589 -0.686013 0.000000
vn 0.727589 0.686013 0.000000
vn 0.727589 0.686013 0.000000
vn -1.000000 0.000000 0.000000
vn -1.000000 0.000000 0.000000
vn 1.000000 0.000000 0.000000
vn 1.000000 0.000000 0.000000
vn -0.554699 0.832051 0.000000
vn -0.554699 0.832051 0.000000
vn 0.554699 -0.832051 0.000000
vn 0.554699 -0.832051 0.000000
vn 0.000000 1.000000 0.000000
vn 0.000000 1.000000 -0.000000
vn -0.000000 -1.000000 0.000000
vn 0.000000 -1.000000 -0.000000
vn 0.666795 0.745241 0.000000
vn 0.666795 0.745241 -0.000000
vn -0.666795 -0.745241 0.000000
vn -0.666795 -0.745241 -0.000000
vn 0.456804 0.889567 0.000000
vn 0.456804 0.889567 -0.000000
vn -0.456804 -0.889567 0.000000
vn -0.456804 -0.889567 -0.000000
vn 0.271957 0.962309 0.000000
vn 0.271957 0.962309 -0.000000
vn -0.271957 -0.962309 0.000000
vn -0.271957 -0.962309 -0.000000
vn 0.894427 0.447214 0.000000
vn 0.894427 0.447214 -0.000000
vn -0.894427 -0.447214 0.000000
vn -0.894427 -0.447214 -0.000000
vn 0.530000 0.847998 0.000000
vn 0.530000 0.847998 -0.000000
vn -0.530000 -0.847998 0.000000
vn -0.530000 -0.847998 -0.000000
vn 0.121730 0.992563 0.000000
vn 0.121730 0.992563 -0.000000
vn -0.121730 -0.992563 0.000000
vn -0.121730 -0.992563 -0.000000
vn 0.447214 0.894427 0.000000
vn 0.447214 0.894427 -0.000000
vn -0.447214 -0.894427 0.000000
vn -0.447214 -0.894427 -0.000000
vn 0.747408 0.664366 0.000000
vn 0.747408 0.664366 -0.000000
vn -0.747408 -0.664366 0.000000
vn -0.747408 -0.664366 -0.000000
vn 1.000000 0.000000 0.000000
vn 1.000000 0.000000 0.000000
vn -1.000000 0.000000 0.000000
vn -1.000000 0.000000 0.000000
f 1//1 3//1 4//1
f 1//2 4//2 2//2
f 2//3 4//3 3//3
f 2//4 3//4 1//4
f 3//5 5//5 6//5
f 3//6 6//6 4//6
f 4//7 6//7 5//7
f 4//8 5//8 3//8
f 5//9 7//9 8//9
f 5//10 8//10 6//10
f 6//11 8//11 7//11
f 6//12 7//12 5//12
f 7//13 9//13 10//13
f 7//14 10//14 8//14
f 8//15 10//15 9//15
f 8//16 9//16 7//16
f 9//17 11//17 12//17
f 9//18 12//18 10//18
f 10//19 12//19 11//19
f 10//20 11//20 9//20
f 11//21 13//21 14//21
f 11//22 14//22 12//22
f 12//23 14//23 13//23
f 12//24 13//24 11//24
f 13//25 15//25 16//25
f 13//26 16//26 14//26
f 14//27 16//27 15//27
f 14//28 15//28 13//28
f 15//29 17//29 18//29
f 15//30 18//30 16//30
f 16//31 18//31 17//31
f 16//32 17//32 15//32
f 17//33 19//33 20//33
f 17//34 20//34 18//34
f 18//35 20//35 19//35
f 18//36 19//36 17//36
f 19//37 21//37 22//37
f 19//38 22//38 20//38
f 20//39 22//39 21//39
f 20//40 21//40 19//40
f 21//41 23//41 24//41
f 21//42 24//42 22//42
f 22//43 24//43 23//43
f 22//44 23//44 21//44
f 23//45 25//45 26//45
f 23//46 26//46 24//46
f 24//47 26//47 25//47
f 24//48 25//48 23//48
f 25//49 27//49 28//49
f 25//50 28//50 26//50
f 26//51 28//51 27//51
f 26//52 27//52 25//52
f 27//53 29//53 30//53
f 27//54 30//54 28//54
f 28//55 30//55 29//55
f 28//56 29//56 27//56
f 29//57 31//57 32//57
f 29//58 32//58 30//58
f 30//59 32//59 31//59
f 30//60 31//60 29//60
f 31//61 33//61 34//61
f 31//62 34//62 32//62
f 32//63 34//63 33//63
f 32//64 33//64 31//64
f 33//65 35//65 36//65
f 33//66 36//66 34//66
f 34//67 36//67 35//67
f 34//68 35//68 33//68
f 35//69 37//69 38//69
f 35//70 38//70 36//70
f 36//71 38//71 37//71
f 36//72 37//72 35//72
f 37//73 39//73 40//73
f 37//74 40//74 38//74
f 38//75 40//75 39//75
f 38//76 39//76 37//76
f 39//77 41//77 42//77
f 39//78 42//78 40//78
f 40//79 42//79 41//79
f 40//80 41//80 39//80
f 41//81 43//81 44//81
f 41//82 44//82 42//82
f 42//83 44//83 43//83
f 42//84 43//84 41//84
f 43//85 45//85 46//85
f 43//86 46//86 44//86
f 44//87 46//87 45//87
f 44//88 45//88 43//88
f 45//89 47//89 48//89
f 45//90 48//90 46//90
f 46//91 48//91 47//91
f 46//92 47//92 45//92
f 47//93 49//93 50//93
f 47//94 50//94 48//94
f 48//95 50//95 49//95
f 48//96 49//96 47//96
f 49//97 51//97 52//97
f 49//98 52//98 50//98
f 50//99 52//99 51//99
f 50//100 51//100 49//100
f 51//101 53//101 54//101
f 51//102 54//102 52//102
f 52//103 54//103 53//103
f 52//104 53//104 51//104
f 53//105 55//105 56//105
f 53//106 56//106 54//106
f 54//107 56//107 55//107
f 54//108 55//108 53//108
f 55//109 57//109 58//109
f 55//110 58//110 56//110
f 56//111 58//111 57//111
f 56//112 57//112 55//112
f 57//113 59//113 60//113
f 57//114 60//114 58//114
f 58//115 60//115 59//115
f 58//116 59//116 57//116
f 59//117 61//117 62//117
f 59//118 62//118 60//118
f 60//119 62//119 61//119
f 60//120 61//120 59//120
f 61//121 63//121 64//121
f 61//122 64//122 62//122
f 62//123 64//123 63//123
f 62//124 63//124 61//124
f 63//125 65//125 66//125
f 63//126 66//126 64//126
f 64//127 66//127 65//127
f 64//128 65//128 63//128
f 65//129 67//129 68//129
f 65//130 68//130 66//130
f 66//131 68//131 67//131
f 66//132 67//132 65//132
f 67//133 69//133 70//133
f 67//134 70//134 68//134
f 68//135 70//135 69//135
f 68//136 69//136 67//136
f 69//137 71//137 72//137
f 69//138 72//138 70//138
f 70//139 72//139 71//139
f 70//140 71//140 69//140
f 71//141 73//141 74//141
f 71//142 74//142 72//142
f 72//143 74//143 73//143
f 72//144 73//144 71//144
f 73//145 75//145 76//145
f 73//146 76//146 74//146
f 74//147 76//147 75//147
f 74//148 75//148 73//148
f 75//149 77//149 78//149
f 75//150 78//150 76//150
f 76//151 78//151 77//151
f 76//152 77//152 75//152
f 77//153 79//153 80//153
f 77//154 80//154 78//154
f 78//155 80//155 79//155
f 78//156 79//156 77//156
f 79//157 81//157 82//157
f 79//158 82//158 80//158
f 80//159 82//159 81//159
f 80//160 81//160 79//160
f 81//161 83//161 84//161
f 81//162 84//162 82//162
f 82//163 84//163 83//163
f 82//164 83//164 81//164
f 83//165 85//165 86//165
f 83//166 86//166 84//166
f 84//167 86//167 85//167
f 84//168 85//168 83//168
f 85//169 87//169 88//169
f 85//170 88//170 86//170
f 86//171 88//171 87//171
f 86//172 87//172 85//172
f 87//173 89//173 90//173
f 87//174 90//174 88//174
f 88//175 90//175 89//175
f 88//176 89//176 87//176
f 89//177 91//177 92//177
f 89//178 92//178 90//178
f 90//179 92//179 91//179
f 90//180 91//180 89//180
f 91//181 93//181 94//181
f 91//182 94//182 92//182
f 92//183 94//183 93//183
f 92//184 93//184 91//184
f 93//185 95//185 96//185
f 93//186 96//186 94//186
f 94//187 96//187 95//187
f 94//188 95//188 93//188
f 95//189 97//189 98//189
f 95//190 98//190 96//190
f 96//191 98//191 97//191
f 96//192 97//192 95//192
f 97//193 99//193 100//193
f 97//194 100//194 98//194
f 98//195 100//195 99//195
f 98//196 99//196 97//196
f 99//197 101//197 102//197
f 99//198 102//198 100//198
f 100//199 102//199 101//199
f 100//200 101//200 99//200
f 101//201 103//201 104//201
f 101//202 104//202 102//202
f 102//203 104//203 103//203
f 102//204 103//204 101//204
f 103//205 105//205 106//205
f 103//206 106//206 104//206
f 104//207 106//207 105//207
f 104//208 105//208 103//208
f 105//209 107//209 108//209
f 105//210 108//210 106//210
f 106//211 108//211 107//211
f 106//212 107//212 105//212
f 107//213 109//213 110//213
f 107//214 110//214 108//214
f 108//215 110//215 109//215
f 108//216 109//216 107//216
f 109//217 111//217 112//217
f 109//218 112//218 110//218
f 110//219 112//219 111//219
f 110//220 111//220 109//220
f 111//221 113//221 114//221
f 111//222 114//222 112//222
f 112//223 114//223 113//223
f 112//224 113//224 111//224
f 113//225 115//225 116//225
f 113//226 116//226 114//226
f 114//227 116//227 115//227
f 114//228 115//228 113//228
f 115//229 117//229 118//229
f 115//230 118//230 116//230
f 116//231 118//231 117//231
f 116//232 117//232 115//232
f 117//233 119//233 120//233
f 117//234 120//234 118//234
f 118//235 120//235 119//235
f 118//236 119//236 117//236
f 119//237 121//237 122//237
f 119//238 122//238 120//238
f 120//239 122//239 121//239
f 120//240 121//240 119//240
f 121//241 123//241 124//241
f 121//242 124//242 122//242
f 122//243 124//243 123//243
f 122//244 123//244 121//244
f 123//245 125//245 126//245
f 123//246 126//246 124//246
f 124//247 126//247 125//247
f 124//248 125//248 123//248
f 125//249 127//249 128//249
f 125//250 128//250 126//250
f 126//251 128//251 127//251
f 126//252 127//252 125//252
f 127//253 129//253 130//253
f 127//254 130//254 128//254
f 128//255 130//255 129//255
f 128//256 129//256 127//256
f 129//257 131//257 132//257
f 129//258 132//258 130//258
f 130//259 132//259 131//259
f 130//260 131//260 129//260
f 131//261 133//261 134//261
f 131//262 134//262 132//262
f 132//263 134//263 133//263
f 132//264 133//264 131//264
f 133//265 135//265 136//265
f 133//266 136//266 134//266
f 134//267 136//267 135//267
f 134//268 135//268 133//268
f 135//269 137//269 138//269
f 135//270 138//270 136//270
f 136//271 138//271 137//271
f 136//272 137//272 135//272
f 137//273 139//273 140//273
f 137//274 140//274 138//274
f 138//275 140//275 139//275
f 138//276 139//276 137//276
f 139//277 141//277 142//277
f 139//278 142//278 140//278
f 140//279 142//279 141//279
f 140//280 141//280 139//280
f 141//281 143//281 144//281
f 141//282 144//282 142//282
f 142//283 144//283 143//283
f 142//284 143//284 141//284
f 143//285 145//285 146//285
f 143//286 146//286 144//286
f 144//287 146//287 145//287
f 144//288 145//288 143//288
f 145//289 147//289 148//289
f 145//290 148//290 146//290
f 146//291 148//291 147//291
f 146//292 147//292 145//292
f 147//293 149//293 150//293
f 147//294 150//294 148//294
f 148//295 150//295 149//295
f 148//296 149//296 147//296
f 149//297 1//297 2//297
f 149//298 2//298 150//298
f 150//299 2//299 1//299
f 150//300 1//300 149//300
f 151//301 153//301 154//301
f 151//302 154//302 152//302
f 152//303 154//303 153//303
f 152//304 153//304 151//304
f 153//305 155//305 156//305
f 153//306 156//306 154//306
f 154//307 156//307 155//307
f 154//308 155//308 153//308
f 155//309 157//309 158//309
f 155//310 158//310 156//310
f 156//311 158//311 157//311
f 156//312 157//312 155//312
f 157//313 159//313 160//313
f 157//314 160//314 158//314
f 158//315 160//315 159//315
f 158//316 159//316 157//316
f 159//317 161//317 162//317
f 159//318 162//318 160//318
f 160//319 162//319 161//319
f 160//320 161//320 159//320
f 161//321 163//321 164//321
f 161//322 164//322 162//322
f 162//323 164//323 163//323
f 162//324 163//324 161//324
f 163//325 165//325 166//325
f 163//326 166//326 164//326
f 164//327 166//327 165//327
f 164//328 165//328 163//328
f 165//329 167//329 168//329
f 165//330 168//330 166//330
f 166//331 168//331 167//331
f 166//332 167//332 165//332
f 167//333 169//333 170//333
f 167//334 170//334 168//334
f 168//335 170//335 169//335
f 168//336 169//336 167//336
f 169//337 171//337 172//337
f 169//338 172//338 170//338
f 170//339 172//339 171//339
f 170//340 171//340 169//340
f 171//341 173//341 174//341
f 171//342 174//342 172//342
f 172//343 174//343 173//343
f 172//344 173//344 171//344
f 173//345 175//345 176//345
f 173//346 176//346 174//346
f 174//347 176//347 175//347
f 174//348 175//348 173//348
f 175//349 177//349 178//349
f 175//350 178//350 176//350
f 176//351 178//351 177//351
f 176//352 177//352 175//352
f 177//353 179//353 180//353
f 177//354 180//354 178//354
f 178//355 180//355 179//355
f 178//356 179//356 177//356
f 179//357 181//357 182//357
f 179//358 182//358 180//358
f 180//359 182//359 181//359
f 180//360 181//360 179//360
f 181//361 183//361 184//361
f 181//362 184//362 182//362
f 182//363 184//363 183//363
f 182//364 183//364 181//364
f 183//365 185//365 186//365
f 183//366 186//366 184//366
f 184//367 186//367 185//367
f 184//368 185//368 183//368
f 185//369 187//369 188//369
f 185//370 188//370 186//370
f 186//371 188//371 187//371
f 186//372 187//372 185//372
f 187//373 189//373 190//373
f 187//374 190//374 188//374
f 188//375 190//375 189//375
f 188//376 189//376 187//376
f 189//377 191//377 192//377
f 189//378 192//378 190//378
f 190//379 192//379 191//379
f 190//380 191//380 189//380
f 191//381 193//381 194//381
f 191//382 194//382 192//382
f 192//383 194//383 193//383
f 192//384 193//384 191//384
f 193//385 151//385 152//385
f 193//386 152//386 194//386
f 194//387 152//387 151//387
f 194//388 151//388 193//388
f 195//389 197//389 198//389
f 195//390 198//390 196//390
f 196//391 198//391 197//391
f 196//392 197//392 195//392
f 197//393 199//393 200//393
f 197//394 200//394 198//394
f 198//395 200//395 199//395
f 198//396 199//396 197//396
f 199//397 201//397 202//397
f 199//398 202//398 200//398
f 200//399 202//399 201//399
f 200//400 201//400 199//400
f 201//401 203//401 204//401
f 201//402 204//402 202//402
f 202//403 204//403 203//403
f 202//404 203//404 201//404
f 203//405 205//405 206//405
f 203//406 206//406 204//406
f 204//407 206//407 205//407
f 204//408 205//408 203//408
f 205//409 207//409 208//409
f 205//410 208//410 206//410
f 206//411 208//411 207//411
f 206//412 207//412 205//412
f 207//413 209//413 210//413
f 207//414 210//414 208//414
f 208//415 210//415 209//415
f 208//416 209//416 207//416
f 209//417 211//417 212//417
f 209//418 212//418 210//418
f 210//419 212//419 211//419
f 210//420 211//420 209//420
f 211//421 213//421 214//421
f 211//422 214//422 212//422
f 212//423 214//423 213//423
f 212//424 213//424 211//424
f 213//425 215//425 216//425
f 213//426 216//426 214//426
f 214//427 216//427 215//427
f 214//428 215//428 213//428
f 215//429 217//429 218//429
f 215//430 218//430 216//430
f 216//431 218//431 217//431
f 216//432 217//432 215//432
f 217//433 219//433 220//433
f 217//434 220//434 218//434
f 218//435 220//435 219//435
f 218//436 219//436 217//436
f 219//437 221//437 222//437
f 219//438 222//438 220//438
f 220//439 222//439 221//439
f 220//440 221//440 219//440
f 221//441 223//441 224//441
f 221//442 224//442 222//442
f 222//443 224//443 223//443
f 222//444 223//444 221//444
f 223//445 225//445 226//445
f 223//446 226//446 224//446
f 224//447 226//447 225//447
f 224//448 225//448 223//448
f 225//449 227//449 228//449
f 225//450 228//450 226//450
f 226//451 228//451 227//451
f 226//452 227//452 225//452
f 227//453 229//453 230//453
f 227//454 230//454 228//454
f 228//455 230//455 229//455
f 228//456 229//456 227//456
f 229//457 231//457 232//457
f 229//458 232//458 230//458
f 230//459 232//459 231//459
f 230//460 231//460 229//460
f 231//461 233//461 234//461
f 231//462 234//462 232//462
f 232//463 234//463 233//463
f 232//464 233//464 231//464
f 233//465 235//465 236//465
f 233//466 236//466 234//466
f 234//467 236//467 235//467
f 234//468 235//468 233//468
f 235//469 237//469 238//469
f 235//470 238//470 236//470
f 236//471 238//471 237//471
f 236//472 237//472 235//472
f 237//473 239//473 240//473
f 237//474 240//474 238//474
f 238//475 240//475 239//475
f 238//476 239//476 237//476
f 239//477 241//477 242//477
f 239//478 242//478 240//478
f 240//479 242//479 241//479
f 240//480 241//480 239//480
f 241//481 243//481 244//481
f 241//482 244//482 242//482
f 242//483 244//483 243//483
f 242//484 243//484 241//484
f 243//485 245//485 246//485
f 243//486 246//486 244//486
f 244//487 246//487 245//487
f 244//488 245//488 243//488
f 245//489 247//489 248//489
f 245//490 248//490 246//490
f 246//491 248//491 247//491
f 246//492 247//492 245//492
f 247//493 249//493 250//493
f 247//494 250//494 248//494
f 248//495 250//495 249//495
f 248//496 249//496 247//496
f 249//497 251//497 252//497
f 249//498 252//498 250//498
f 250//499 252//499 251//499
f 250//500 251//500 249//500
f 251//501 253//501 254//501
f 251//502 254//502 252//502
f 252//503 254//503 253//503
f 252//504 253//504 251//504
f 253//505 195//505 196//505
f 253//506 196//506 254//506
f 254//507 196//507 195//507
f 254//508 195//508 253//508
f 255//509 257//509 258//509
f 255//510 258//510 256//510
f 256//511 258//511 257//511
f 256//512 257//512 255//512
f 257//513 259//513 260//513
f 257//514 260//514 258//514
f 258//515 260//515 259//515
f 258//516 259//516 257//516
f 259//517 261//517 262//517
f 259//518 262//518 260//518
f 260//519 262//519 261//519
f 260//520 261//520 259//520
f 261//521 263//521 264//521
f 261//522 264//522 262//522
f 262//523 264//523 263//523
f 262//524 263//524 261//524
f 263//525 265//525 266//525
f 263//526 266//526 264//526
f 264//527 266//527 265//527
f 264//528 265//528 263//528
f 265//529 267//529 268//529
f 265//530 268//530 266//530
f 266//531 268//531 267//531
f 266//532 267//532 265//532
f 267//533 269//533 270//533
f 267//534 270//534 268//534
f 268//535 270//535 269//535
f 268//536 269//536 267//536
f 269//537 271//537 272//537
f 269//538 272//538 270//538
f 270//539 272//539 271//539
f 270//540 271//540 269//540
f 271//541 273//541 274//541
f 271//542 274//542 272//542
f 272//543 274//543 273//543
f 272//544 273//544 271//544
f 273//545 275//545 276//545
f 273//546 276//546 274//546
f 274//547 276//547 275//547
f 274//548 275//548 273//548
f 275//549 255//549 256//549
f 275//550 256//550 276//550
f 276//551 256//551 255//551
f 276//552 255//552 275//552
f 277//553 279//553 280//553
f 277//554 280//554 278//554
f 278//555 280//555 279//555
f 278//556 279//556 277//556
f 279//557 281//557 282//557
f 279//558 282//558 280//558
f 280//559 282//559 281//559
f 280//560 281//560 279//560
f 281//561 283//561 284//561
f 281//562 284//562 282//562
f 282//563 284//563 283//563
f 282//564 283//564 281//564
f 283//565 285//565 286//565
f 283//566 286//566 284//566
f 284//567 286//567 285//567
f 284//568 285//568 283//568
f 285//569 287//569 288//569
f 285//570 288//570 286//570
f 286//571 288//571 287//571
f 286//572 287//572 285//572
f 287//573 289//573 290//573
f 287//574 290//574 288//574
f 288//575 290//575 289//575
f 288//576 289//576 287//576
f 289//577 291//577 292//577
f 289//578 292//578 290//578
f 290//579 292//579 291//579
f 290//580 291//580 289//580
f 291//581 293//581 294//581
f 291//582 294//582 292//582
f 292//583 294//583 293//583
f 292//584 293//584 291//584
f 293//585 295//585 296//585
f 293//586 296//586 294//586
f 294//587 296//587 295//587
f 294//588 295//588 293//588
f 295//589 297//589 298//589
f 295//590 298//590 296//590
f 296//591 298//591 297//591
f 296//592 297//592 295//592
f 297//593 299//593 300//593
f 297//594 300//594 298//594
f 298//595 300//595 299//595
f 298//596 299//596 297//596
f 299//597 301//597 302//597
f 299//598 302//598 300//598
f 300//599 302//599 301//599
f 300//600 301//600 299//600
f 301//601 303//601 304//601
f 301//602 304//602 302//602
f 302//603 304//603 303//603
f 302//604 303//604 301//604
f 303//605 305//605 306//605
f 303//606 306//606 304//606
f 304//607 306//607 305//607
f 304//608 305//608 303//608
f 305//609 307//609 308//609
f 305//610 308//610 306//610
f 306//611 308//611 307//611
f 306//612 307//612 305//612
f 307//613 309//613 310//613
f 307//614 310//614 308//614
f 308//615 310//615 309//615
f 308//616 309//616 307//616
f 309//617 311//617 312//617
f 309//618 312//618 310//618
f 310//619 312//619 311//619
f 310//620 311//620 309//620
f 311//621 313//621 314//621
f 311//622 314//622 312//622
f 312//623 314//623 313//623
f 312//624 313//624 311//624
f 313//625 315//625 316//625
f 313//626 316//626 314//626
f 314//627 316//627 315//627
f 314//628 315//628 313//628
f 315//629 317//629 318//629
f 315//630 318//630 316//630
f 316//631 318//631 317//631
f 316//632 317//632 315//632
f 317//633 319//633 320//633
f 317//634 320//634 318//634
f 318//635 320//635 319//635
f 318//636 319//636 317//636
f 319//637 321//637 322//637
f 319//638 322//638 320//638
f 320//639 322//639 321//639
f 320//640 321//640 319//640
f 321//641 323//641 324//641
f 321//642 324//642 322//642
f 322//643 324//643 323//643
f 322//644 323//644 321//644
f 323//645 325//645 326//645
f 323//646 326//646 324//646
f 324//647 326//647 325//647
f 324//648 325//648 323//648
f 325//649 327//649 328//649
f 325//650 328//650 326//650
f 326//651 328//651 327//651
f 326//652 327//652 325//652
f 327//653 277//653 278//653
f 327//654 278//654 328//654
f 328//655 278//655 277//655
f 328//656 277//656 327//656
f 329//657 331//657 332//657
f 329//658 332//658 330//658
f 330//659 332//659 331//659
f 330//660 331//660 329//660
f 331//661 333//661 334//661
f 331//662 334//662 332//662
f 332//663 334//663 333//663
f 332//664 333//664 331//664
f 333//665 335//665 336//665
f 333//666 336//666 334//666
f 334//667 336//667 335//667
f 334//668 335//668 333//668
f 335//669 337//669 338//669
f 335//670 338//670 336//670
f 336//671 338//671 337//671
f 336//672 337//672 335//672
f 337//673 339//673 340//673
f 337//674 340//674 338//674
f 338//675 340//675 339//675
f 338//676 339//676 337//676
f 339//677 341//677 342//677
f 339//678 342//678 340//678
f 340//679 342//679 341//679
f 340//680 341//680 339//680
f 341//681 343//681 344//681
f 341//682 344//682 342//682
f 342//683 344//683 343//683
f 342//684 343//684 341//684
f 343//685 345//685 346//685
f 343//686 346//686 344//686
f 344//687 346//687 345//687
f 344//688 345//688 343//688
f 345//689 347//689 348//689
f 345//690 348//690 346//690
f 346//691 348//691 347//691
f 346//692 347//692 345//692
f 347//693 349//693 350//693
f 347//694 350//694 348//694
f 348//695 350//695 349//695
f 348//696 349//696 347//696
f 349//697 351//697 352//697
f 349//698 352//698 350//698
f 350//699 352//699 351//699
f 350//700 351//700 349//700
f 351//701 353//701 354//701
f 351//702 354//702 352//702
f 352//703 354//703 353//703
f 352//704 353//704 351//704
f 353//705 355//705 356//705
f 353//706 356//706 354//706
f 354//707 356//707 355//707
f 354//708 355//708 353//708
f 355//709 357//709 358//709
f 355//710 358//710 356//710
f 356//711 358//711 357//711
f 356//712 357//712 355//712
f 357//713 359//713 360//713
f 357//714 360//714 358//714
f 358//715 360//715 359//715
f 358//716 359//716 357//716
f 359//717 361//717 362//717
f 359//718 362//718 360//718
f 360//719 362//719 361//719
f 360//720 361//720 359//720
f 361//721 363//721 364//721
f 361//722 364//722 362//722
f 362//723 364//723 363//723
f 362//724 363//724 361//724
f 363//725 365//725 366//725
f 363//726 366//726 364//726
f 364//727 366//727 365//727
f 364//728 365//728 363//728
f 365//729 367//729 368//729
f 365//730 368//730 366//730
f 366//731 368//731 367//731
f 366//732 367//732 365//732
f 367//733 369//733 370//733
f 367//734 370//734 368//734
f 368//735 370//735 369//735
f 368//736 369//736 367//736
f 369//737 371//737 372//737
f 369//738 372//738 370//738
f 370//739 372//739 371//739
f 370//740 371//740 369//740
f 371//741 373//741 374//741
f 371//742 374//742 372//742
f 372//743 374//743 373//743
f 372//744 373//744 371//744
f 373//745 375//745 376//745
f 373//746 376//746 374//746
f 374//747 376//747 375//747
f 374//748 375//748 373//748
f 375//749 377//749 378//749
f 375//750 378//750 376//750
f 376//751 378//751 377//751
f 376//752 377//752 375//752
f 377//753 379//753 380//753
f 377//754 380//754 378//754
f 378//755 380//755 379//755
f 378//756 379//756 377//756
f 379//757 381//757 382//757
f 379//758 382//758 380//758
f 380//759 382//759 381//759
f 380//760 381//760 379//760
f 381//761 383//761 384//761
f 381//762 384//762 382//762
f 382//763 384//763 383//763
f 382//764 383//764 381//764
f 383//765 385//765 386//765
f 383//766 386//766 384//766
f 384//767 386//767 385//767
f 384//768 385//768 383//768
f 385//769 387//769 388//769
f 385//770 388//770 386//770
f 386//771 388//771 387//771
f 386//772 387//772 385//772
f 387//773 389//773 390//773
f 387//774 390//774 388//774
f 388//775 390//775 389//775
f 388//776 389//776 387//776
f 389//777 391//777 392//777
f 389//778 392//778 390//778
f 390//779 392//779 391//779
f 390//780 391//780 389//780
f 391//781 329//781 330//781
f 391//782 330//782 392//782
f 392//783 330//783 329//783
f 392//784 329//784 391//784
